<svg xmlns="http://www.w3.org/2000/svg" viewBox="0 0 208.61 162.98"><defs><style>.cls-1{fill:#cc9932;}.cls-2{fill:#152718;}.cls-3{fill:none;stroke:#638565;stroke-miterlimit:10;stroke-width:4px;}</style></defs><title>wettangen_500</title><g id="Layer_4" data-name="Layer 4"><polygon class="cls-1" points="104.02 0.35 94.6 149.76 113.44 149.76 104.02 0.35"/><path class="cls-1" d="M267.51,260c-.65-4.1-3-15.44-12.84-23.3a32.89,32.89,0,0,0-8-4.71l2,7.71C247.29,239,236,233.39,225,239a24.08,24.08,0,0,0-9.3,8.61c1.68-1.42,7.85-6.28,15.65-5.22,6.44.88,12.48,5.6,11.85,7.61-.32,1-2.5,1.88-11,1.09l31.3,15.65Z" transform="translate(-162.26 -231.61)"/><path class="cls-1" d="M265.07,259.62c.65-4.1,3-15.44,12.84-23.3a32.89,32.89,0,0,1,8-4.71l-2,7.71c1.37-.7,12.67-6.28,23.67-.67a24.08,24.08,0,0,1,9.3,8.61C315.2,245.84,309,241,301.23,242c-6.44.88-12.48,5.6-11.85,7.61.32,1,2.5,1.88,11,1.09l-31.3,15.65Z" transform="translate(-162.26 -231.61)"/><path class="cls-1" d="M264.75,286.62c-3.12-3.88-12.37-14.27-27.28-16.59a39.47,39.47,0,0,0-11.14-.13l6.68,6.83c-1.85.09-16.94,1-25,13.43a28.9,28.9,0,0,0-4.55,14.52c.9-2.48,4.42-11.23,13.18-14.78,7.23-2.93,16.33-1.62,16.87.85.27,1.24-1.47,3.45-10.78,7.68l41.93-2.4Z" transform="translate(-162.26 -231.61)"/><path class="cls-1" d="M269.24,286.86c3-4,11.86-14.7,26.68-17.54a39.47,39.47,0,0,1,11.13-.52l-6.44,7.06c1.85,0,17,.43,25.49,12.54a28.9,28.9,0,0,1,5.06,14.35c-1-2.45-4.82-11.07-13.69-14.3-7.33-2.67-16.38-1-16.83,1.45-.23,1.25,1.6,3.4,11,7.3l-42-.91Z" transform="translate(-162.26 -231.61)"/><path class="cls-1" d="M261.45,319c-4.59-1.93-17.66-6.7-31.89-1.67a39.47,39.47,0,0,0-9.87,5.17l9.12,2.85c-1.59,1-14.43,8.94-15.67,23.7A28.9,28.9,0,0,0,216,364c-.38-2.62-1.43-12,4.6-19.26,5-6,13.61-9.17,15.26-7.25.83,1,.34,3.74-5.85,11.87l35.78-22Z" transform="translate(-162.26 -231.61)"/><path class="cls-1" d="M270.88,320.1c4.44-2.26,17.13-7.95,31.68-4a39.47,39.47,0,0,1,10.21,4.45l-8.9,3.49c1.65.84,15,7.88,17.33,22.51a28.9,28.9,0,0,1-1.8,15.1c.19-2.64.57-12.06-6-18.88-5.4-5.63-14.23-8.17-15.74-6.14-.76,1-.07,3.75,6.68,11.42l-37.27-19.37Z" transform="translate(-162.26 -231.61)"/></g><g id="Layer_3" data-name="Layer 3"><path class="cls-2" d="M242.26,392.83c-14.6.27-25.36-7.9-33-13.91-21.38-16.72-30.86-39.25-38.26-57.39-4.34-10.64-4.31-18.55-6-24.86l-2.74-22.17,45.22,41.8L253,358.91c10.41,5.56,15.72,15.38,13.61,22.61C263.42,392.43,244.72,392.78,242.26,392.83Z" transform="translate(-162.26 -231.61)"/><path class="cls-3" d="M171,321.52a17.23,17.23,0,0,0,12.17-1.74c5.93-3.49,9.13-10.84,8-18.56" transform="translate(-162.26 -231.61)"/><path class="cls-3" d="M209.56,377.76c2.42.52,10.52,2,18.26-2.61,8.89-5.24,13.7-16.26,12.05-27.84" transform="translate(-162.26 -231.61)"/><path class="cls-3" d="M181.17,347.08c2.65.44,11.5,1.66,20-2.21,9.73-4.45,15-13.8,13.18-23.63" transform="translate(-162.26 -231.61)"/><path class="cls-2" d="M290.87,394.58c14.6.27,25.36-7.9,33-13.91,21.38-16.72,30.86-39.25,38.26-57.39,4.34-10.64,4.5-19,6.16-25.28l2.54-21.74-45.22,41.8-45.52,42.61c-10.41,5.56-15.72,15.38-13.61,22.61C269.71,394.19,288.41,394.54,290.87,394.58Z" transform="translate(-162.26 -231.61)"/><path class="cls-3" d="M362.18,323.28A17.23,17.23,0,0,1,350,321.54c-5.93-3.49-9.35-9.13-8.25-16.85" transform="translate(-162.26 -231.61)"/><path class="cls-3" d="M323.58,379.52c-2.42.52-10.52,2-18.26-2.61-8.89-5.24-13.7-16.26-12.05-27.84" transform="translate(-162.26 -231.61)"/><path class="cls-3" d="M350.11,349.36A31.43,31.43,0,0,1,332,346.62c-9.73-4.45-15.22-12.11-13.42-21.94" transform="translate(-162.26 -231.61)"/></g></svg>